<?xml version="1.0" encoding="UTF-8"?>
<svg width="20px" height="20px" viewBox="0 0 20 17" version="1.1" xmlns="http://www.w3.org/2000/svg"
    xmlns:xlink="http://www.w3.org/1999/xlink">
    <g stroke="none" stroke-width="1" fill="none" fill-rule="evenodd">
        <g transform="translate(-597.000000, -273.000000)" fill-rule="nonzero">
            <g transform="translate(455.000000, 176.000000)">
                <g transform="translate(86.000000, 20.000000)">
                    <g
                        transform="translate(57.269912, 77.057143)">
                        <path
                            d="M2.5358211,2.52594042 C0.0599612693,4.99629087 -0.680701969,8.71152136 0.659203308,11.9392167 C1.99910859,15.1669119 5.15570926,17.2714286 8.65707965,17.2714286 C12.15845,17.2714286 15.3150507,15.1669119 16.654956,11.9392167 C17.9948613,8.71152136 17.254198,4.99629087 14.7783382,2.52594042 C11.3954699,-0.841980139 5.91868941,-0.841980139 2.5358211,2.52594042 Z"
                            fill="#DBE33A"></path>
                        <path
                            d="M2.5358211,2.52594042 C0.0599612693,4.99629087 -0.680701969,8.71152136 0.659203308,11.9392167 C1.99910859,15.1669119 5.15570926,17.2714286 8.65707965,17.2714286 C12.15845,17.2714286 15.3150507,15.1669119 16.654956,11.9392167 C17.9948613,8.71152136 17.254198,4.99629087 14.7783382,2.52594042 C11.3954699,-0.841980139 5.91868941,-0.841980139 2.5358211,2.52594042 Z M3.62684872,3.61455527 C4.9452504,2.29779838 6.73067381,1.55260586 8.59603693,1.54053638 C8.56872222,5.41297178 5.42914981,8.54542966 1.54813017,8.57247199 C1.56040173,6.71132487 2.30726628,4.92998156 3.62684872,3.61452961 L3.62684872,3.61455527 Z M13.6873106,13.6526404 C12.2725009,15.0654695 10.3255193,15.8164455 8.32617335,15.7205005 C8.23343923,13.7830822 8.94061781,11.8924097 10.2828147,10.4893353 C11.6250116,9.08626088 13.4849105,8.29342189 15.4288347,8.29568153 C15.5391153,8.29568153 15.6493617,8.29830384 15.7595738,8.3035388 C15.8556907,10.2983614 15.103126,12.2409358 13.6873106,13.6526147 L13.6873106,13.6526404 Z M9.30746039,9.28265576 C7.66235711,10.9227093 6.75029788,13.1558538 6.77794904,15.4760741 C4.21053656,14.7789439 2.25057453,12.7059966 1.70249224,10.1080343 C6.31463641,10.001787 10.0282088,6.29644966 10.1347197,1.69450576 C12.7384474,2.24122202 14.8160175,4.19682582 15.5146057,6.75855871 C13.189236,6.73101161 10.9511556,7.64111138 9.30751183,9.2826301 L9.30746039,9.28265576 Z"
                            fill="#000000"></path>
                    </g>
                </g>
            </g>
        </g>
    </g>
</svg>