<?xml version="1.0" encoding="UTF-8"?>
<svg width="65px" height="58px" viewBox="0 0 65 62" version="1.1" xmlns="http://www.w3.org/2000/svg"
    xmlns:xlink="http://www.w3.org/1999/xlink">
    <defs>
        <filter x="-13.6%" y="-100.0%" width="127.2%" height="300.1%"
            filterUnits="objectBoundingBox" id="filter-AI">
            <feGaussianBlur stdDeviation="1.32911392" in="SourceGraphic"></feGaussianBlur>
        </filter>
    </defs>
    <g stroke="none" stroke-width="1" fill="none" fill-rule="evenodd">
        <g transform="translate(-600.000000, -196.000000)">
            <g transform="translate(455.000000, 176.000000)">
                <g transform="translate(86.000000, 20.000000)">
                    <g transform="translate(59.933628, 0.000000)">
                        <g transform="translate(0.000000, 5.314286)">
                            <path
                                d="M43.7583454,7.04634214 C41.4690334,3.9190949 39.6556316,2.46252026 38.0537017,2.46252026 L31.5349497,2.46252026 C30.9362367,0.77689228 27.3435667,0 23.9733542,0 C20.6039265,0 17.0096871,0.77689228 16.4105818,2.46252026 L9.89300677,2.46252026 C8.29029223,2.46252026 6.47689037,3.9190949 4.1883631,7.04634214 C3.41976634,8.09794101 0.236700718,13.3405864 0.1009506,13.5637363 C0,13.7317875 -0.0273450313,13.9356529 0.0283674448,14.1237757 C0.0829028967,14.3122921 0.215906625,14.46893 0.39363727,14.5539395 L9.60110479,19.0082793 C9.69565906,19.053539 9.79452909,19.0716429 9.89300677,19.07243 L9.89300677,42.4488589 C9.89300677,43.2186671 10.4658252,43.8428571 11.1728244,43.8428571 L36.7734918,43.8428571 C37.4804909,43.8428571 38.0537017,43.2186671 38.0537017,42.4488589 L38.0537017,19.0743978 C38.1525717,19.0732171 38.2514418,19.053539 38.344819,19.0082793 L47.5526789,14.5539395 C47.7292325,14.46893 47.8630209,14.3122921 47.9191257,14.1237757 C47.9740535,13.9356529 47.9469027,13.7317875 47.8449732,13.5637363 C47.7088307,13.3405864 44.5273345,8.09794101 43.7583454,7.04634214"
                                fill="#1C1C1C"></path>
                            <path
                                d="M38.0537017,11.078783 L36.7734918,11.078783 L36.7734918,42.4488589 L11.1728244,42.4488589 L11.1728244,11.078783 L9.89300677,11.078783 L9.89300677,17.6009 L1.68797148,13.6322162 C2.5840792,12.1595055 4.73018655,8.66230957 5.30889008,7.87124904 C7.73748323,4.55391113 9.14206537,3.85651847 9.89300677,3.85651847 L16.8178321,3.85651847 C18.0442913,6.3812216 19.9957973,10.5411767 20.0173761,10.5884042 C20.0585719,10.6753815 20.1299781,10.7415 20.2182549,10.772985 C20.255135,10.7847919 20.2920151,10.791876 20.3300722,10.791876 C20.3830383,10.791876 20.436789,10.7781013 20.4842623,10.7533069 L22.3384677,9.78907887 L25.6082408,9.78907887 L27.4620538,10.7533069 C27.5103118,10.7781013 27.5632779,10.791876 27.6166363,10.791876 C27.6550858,10.791876 27.6911812,10.7847919 27.7276689,10.772985 C27.8155534,10.7415 27.8877442,10.6753815 27.92894,10.5884042 C27.9509112,10.5411767 29.9024172,6.3812216 31.129661,3.85651847 L38.0537017,3.85651847 C38.8034661,3.85651847 40.2080482,4.55391113 42.6386031,7.87124904 C43.2173066,8.66230957 45.3606676,12.1595055 46.258737,13.6322162 L38.0537017,17.6012935 L38.0537017,11.078783 Z"
                                fill="#4D6BCD"></path>
                            <path
                                d="M30.1554774,2.96470595 C30.1554774,3.22091511 30.2931892,3.43540664 30.4905369,3.56803719 C29.4618178,5.68658387 27.942672,8.91064747 27.4569534,9.9417811 L25.6925942,9.02281277 C26.0861126,7.89919197 27.4946181,3.94388933 28.4538928,2.04062131 C29.5347933,2.35901334 30.121736,2.73840754 30.1554774,2.96470595"
                                fill="#FFFFFF"></path>
                            <path
                                d="M23.9733542,1.48136907 C25.5156482,1.48136907 26.7778104,1.64272967 27.7590562,1.86312465 C26.7205286,3.98521339 25.2876979,8.06015902 24.9910878,8.91655091 L22.9564054,8.91655091 C22.6582259,8.06015902 21.2253952,3.98600051 20.1864752,1.86391177 C21.167721,1.64312324 22.4302756,1.48136907 23.9733542,1.48136907"
                                fill="#FFFFFE"></path>
                            <path
                                d="M17.7912311,2.96588664 C17.8237954,2.73998179 18.4115228,2.35980046 19.4936004,2.04062131 C20.451698,3.94388933 21.8613806,7.89919197 22.2541143,9.02281277 L20.4885781,9.9417811 C20.0040365,8.91064747 18.48646,5.68776456 17.4565639,3.56961144 C17.6539116,3.43619377 17.7912311,3.22248936 17.7912311,2.96588664"
                                fill="#FFFFFF"></path>
                        </g>
                        <rect fill-opacity="1" fill="#1C1C1C" filter="url(#filter-AI)"
                            x="9.32300885" y="53" width="29.300885" height="6"
                            rx="1.99285714"></rect>
                        <g transform="translate(19.977876, 0.000000)">
                            <g>
                                <path
                                    d="M29.6668306,0.0716826212 C33.8267263,-0.325743456 37.604878,0.938639616 40.3075042,3.63466923 C43.0100117,6.33046179 44.2784588,10.1002609 43.8792483,14.2494895 C43.4939991,18.2523354 41.5860509,22.1483081 38.506671,25.2199348 C35.4272316,28.2919763 31.5215283,30.195307 27.5091853,30.5793987 C26.9145885,30.636074 26.3172355,30.6588751 25.7200358,30.6476908 C19.2129198,31.9565023 14.5078253,33.6783462 12.360636,35.5259488 L4.51554428,43.3518921 C3.8577449,44.0065122 2.79291365,44.0065122 2.13511427,43.3518921 L0.493042334,41.7138281 C0.177354537,41.3989462 0,40.9718535 0,40.5265182 C0,40.081183 0.177354537,39.6540902 0.493042334,39.3392083 L8.33759939,31.5139762 C10.1899603,29.3724229 11.9162548,24.6783385 13.2284073,18.186473 C13.2167444,17.5906961 13.2395691,16.9947443 13.2967675,16.4015918 C13.6820168,12.3987459 15.5902026,8.50301027 18.6693449,5.43114652 C21.7484872,2.35928277 25.6540916,0.455971789 29.6668306,0.0716826212 Z M15.1670502,24.8873833 C14.423583,27.3883743 13.6077552,29.4811333 12.7275476,31.1473675 C14.3977399,30.2692096 16.4956393,29.4554719 19.0029081,28.7137007 C17.4519822,27.7424082 16.1407914,26.4344785 15.1670502,24.8873833 Z M20.7091222,7.46576732 C15.3716755,12.7900875 14.5638878,20.6478162 18.9082889,24.9815147 C20.7374604,26.8063203 23.2289066,27.7757254 26.0272411,27.7757254 C26.478802,27.7753868 26.9300186,27.750849 27.3789404,27.702218 C30.6744908,27.3482128 33.9020771,25.7439098 36.4670917,23.1852547 C41.8044394,17.8609345 42.6122469,10.0032058 38.2677467,5.66950734 C33.9232466,1.33580888 26.0464699,2.14164468 20.7091222,7.46576732 L20.7091222,7.46576732 Z"
                                    fill="#FFFFFF"></path>
                                <path
                                    d="M40.3075042,3.63466923 C37.604878,0.938639616 33.8267263,-0.325743456 29.6668306,0.0716826212 C25.6540916,0.455971789 21.7484872,2.35928277 18.6693449,5.43114652 C15.5902026,8.50301027 13.6820168,12.3987459 13.2967675,16.4015918 C13.2395691,16.9947443 13.2167444,17.5906961 13.2284073,18.186473 C11.9162548,24.6783385 10.1899603,29.3724229 8.33759939,31.5139762 L0.493042334,39.3392083 C0.177354537,39.6540902 0,40.081183 0,40.5265182 C0,40.9718535 0.177354537,41.3989462 0.493042334,41.7138281 L2.13511427,43.3518921 C2.79291365,44.0065122 3.8577449,44.0065122 4.51554428,43.3518921 L12.360636,35.5259488 C14.5078253,33.6783462 19.2129198,31.9565023 25.7200358,30.6476908 C26.3172355,30.6588751 26.9145885,30.636074 27.5091853,30.5793987 C31.5215283,30.195307 35.4272316,28.2919763 38.506671,25.2199348 C41.5860509,22.1483081 43.4939991,18.2523354 43.8792483,14.2494895 C44.2784588,10.1002609 43.0100117,6.33046179 40.3075042,3.63466923 Z M3.67555676,42.5139943 C3.48203264,42.7065229 3.16882395,42.7065229 2.97529982,42.5139943 L1.3333269,40.8759304 C1.14001092,40.6830092 1.14001092,40.3703038 1.3333269,40.1773826 L8.44065465,33.0874026 L10.7827261,35.4239155 L3.67555676,42.5139943 Z M42.6965288,14.1360972 C42.3375979,17.8657942 40.5512604,21.5043822 37.6666636,24.3819382 C34.7820668,27.2594943 31.1341601,29.0416691 27.3957532,29.3995264 C26.8263282,29.4542278 26.2541289,29.4748427 25.6822317,29.46126 C25.6380389,29.4598661 25.5938357,29.4636855 25.5505412,29.4726388 C20.7622935,30.4319887 14.5811759,32.0843551 11.6274465,34.5901662 L10.6416489,33.6066759 C10.8292064,33.6680873 11.0350926,33.6325538 11.1910657,33.5118531 C13.1412143,32.0015037 16.3469181,30.6387419 20.7190832,29.4613588 C20.9598744,29.3965746 21.1344714,29.188664 21.156212,28.9408247 C21.1779526,28.6929853 21.0422081,28.4579842 20.8163559,28.3524654 C18.4894286,27.2660143 16.6183977,25.3995502 15.5292883,23.0783025 C15.4234773,22.8530754 15.1879408,22.7177253 14.9395476,22.7394101 C14.6911544,22.761095 14.4827659,22.9352001 14.4177807,23.1753378 C13.2373187,27.5367127 11.8712027,30.7347105 10.3574548,32.6800794 C10.2362838,32.8356654 10.2005819,33.0411648 10.262202,33.2283527 L9.27620628,32.2446649 C11.7882476,29.2982438 13.4446174,23.1322132 14.4063543,18.3555737 C14.4150241,18.3123409 14.4188497,18.2682807 14.4177608,18.2242046 C14.4040116,17.6537376 14.424644,17.0829618 14.4795465,16.5149643 C14.8384774,12.7852674 16.6248148,9.14667932 19.5095305,6.26912329 C22.3942461,3.39156727 26.0416578,1.60958997 29.7803419,1.25153511 C33.5795838,0.886526583 37.019974,2.03149219 39.4674177,4.47268552 C41.9144653,6.91383934 43.061262,10.3456544 42.6965288,14.1360972 L42.6965288,14.1360972 Z M12.7275476,31.1473675 C13.6077552,29.4811333 14.423583,27.3883743 15.1670502,24.8873833 C16.1407914,26.4344785 17.4519822,27.7424082 19.0029081,28.7137007 C16.4956393,29.4554719 14.3977399,30.2692096 12.7275476,31.1473675 L12.7275476,31.1473675 Z"
                                    fill="#1C1C1C" fill-rule="nonzero"></path>
                            </g>
                            <path
                                d="M20.7091222,7.46576732 C15.3716755,12.7900875 14.5638878,20.6478162 18.9082889,24.9815147 C20.7374604,26.8063203 23.2289066,27.7757254 26.0272411,27.7757254 C26.478802,27.7753868 26.9300186,27.750849 27.3789404,27.702218 C30.6744908,27.3482128 33.9020771,25.7439098 36.4670917,23.1852547 C41.8044394,17.8609345 42.6122469,10.0032058 38.2677467,5.66950734 C33.9232466,1.33580888 26.0464699,2.14164468 20.7091222,7.46576732 L20.7091222,7.46576732 Z M34.7068349,4.72455859 C35.5389251,5.05658577 36.3103875,5.52331264 36.9901308,6.1059293 L35.4250533,7.66720652 L33.5910696,5.83769929 L34.7068349,4.72455859 Z M25.5684432,13.8406057 L27.4025061,12.0110194 L29.2365491,13.8405661 L27.4024863,15.6701524 L25.5684432,13.8406057 Z M26.5623997,16.5081884 L24.7283369,18.3377747 L22.8942938,16.5082082 L24.7283567,14.6786219 L26.5623997,16.5081884 Z M30.0766753,14.6786417 L31.9106787,16.5081884 L30.0766158,18.3377747 L28.2426124,16.5082477 L30.0766753,14.6786417 Z M30.9167618,13.8406057 L32.7508445,12.0109601 L34.5848875,13.8405266 L32.750785,15.6701524 L30.9167618,13.8406057 Z M32.7507652,10.3348288 L30.9167816,8.50530182 L32.7508643,6.67569582 L34.5848677,8.5052228 L32.7507652,10.3348288 Z M31.9106391,11.1729044 L30.0765564,13.0025499 L28.2425728,11.1730821 L30.0766753,9.34345639 L31.9106391,11.1729044 Z M27.4024466,10.3349671 L25.568364,8.50538084 L27.4024665,6.67575508 L29.2365491,8.50534133 L27.4024466,10.3349671 Z M26.5623997,11.1730821 L24.7283369,13.0026684 L22.8942938,11.1729636 L24.7283567,9.34339712 L26.5623997,11.1730821 Z M23.8882701,13.8406057 L22.0542073,15.6701919 L20.2201246,13.8405661 L22.0541875,12.0109799 L23.8882701,13.8406057 Z M23.8882701,19.1758305 L22.0541875,21.005476 L20.2201246,19.1758897 L22.0542271,17.346264 L23.8882701,19.1758305 Z M24.7283963,20.013906 L26.5623997,21.843433 L24.7282973,23.6730588 L22.8943136,21.8435515 L24.7283963,20.013906 Z M25.5684828,19.17587 L27.4025457,17.3462837 L29.2365491,19.1758107 L27.4024863,21.005397 L25.5684828,19.17587 Z M30.0766357,20.0138468 L31.9106985,21.8434725 L30.0766357,23.6730588 L28.2425728,21.843433 L30.0766357,20.0138468 Z M30.9167222,19.1758305 L32.750785,17.3462442 L34.5848875,19.1758305 L32.750785,21.0054365 L30.9167222,19.1758305 Z M33.5908716,16.5082082 L35.424974,14.6785824 L37.2590765,16.5081687 L35.424974,18.3377944 L33.5908716,16.5082082 Z M33.5908716,11.1729439 L35.424974,9.34333786 L37.2590369,11.1729241 L35.4249344,13.0025301 L33.5908716,11.1729439 Z M33.4310805,4.32108756 L32.7508247,4.99966325 L31.8326149,4.08367496 C32.3711008,4.11864715 32.9057573,4.1980562 33.4311003,4.32108756 L33.4310805,4.32108756 Z M29.96356,4.12083365 C30.0333659,4.1135639 30.1026965,4.10955369 30.1723242,4.10358775 L31.9106589,5.83767953 L30.0765762,7.66728554 L28.2424936,5.83769929 L29.96356,4.12083365 Z M27.8758592,4.52758397 L27.4025655,4.99972251 L27.1568884,4.75462532 C27.3961097,4.67179365 27.6357468,4.59554031 27.8758592,4.52758397 L27.8758592,4.52758397 Z M25.9571976,5.23405337 L26.5624393,5.83781782 L24.7283369,7.66744357 L23.6253049,6.56710395 C24.3600698,6.05247397 25.1406427,5.60621832 25.9571976,5.2339546 L25.9571976,5.23405337 Z M21.549189,8.30394165 C21.9109253,7.9430882 22.2843917,7.60505807 22.6695882,7.28985127 L23.8882305,8.50549937 L22.0541677,10.3350659 L20.8117418,9.09565279 C21.0469629,8.82621775 21.2910953,8.56128678 21.549189,8.30380336 L21.549189,8.30394165 Z M20.0619772,10.0238693 L21.2140019,11.1730821 L19.3799391,13.0026684 L18.6643545,12.2886132 C19.0612903,11.4933989 19.5290799,10.735388 20.0620762,10.023731 L20.0619772,10.0238693 Z M18.1521675,13.4539262 L18.5398723,13.8407044 L17.763017,14.6156438 C17.8737031,14.2271337 18.0034529,13.839855 18.1522665,13.4538076 L18.1521675,13.4539262 Z M19.3799589,14.6787207 L21.2140415,16.5083465 L19.3799391,18.3379722 L17.5458564,16.5083465 L19.3799589,14.6787207 Z M17.2964365,17.9356075 L18.5398525,19.1760083 L17.5563916,20.1570489 C17.3863712,19.4286208 17.2991957,18.683397 17.2965157,17.9354889 L17.2964365,17.9356075 Z M19.0448312,23.3389072 C18.5994274,22.7535999 18.2351811,22.1110484 17.961939,21.4286227 L19.3799391,20.0140641 L21.2140217,21.8436503 L19.3799589,23.6732366 L19.0448312,23.3389072 Z M20.5523016,24.8426783 L20.2201048,24.5112923 L22.0541677,22.6817061 L23.8881315,24.5111936 L22.4689631,25.9268783 C21.7840226,25.6532678 21.1393146,25.2885239 20.552361,24.8425598 L20.5523016,24.8426783 Z M23.7457671,26.3292628 L24.728218,25.3492494 L25.9689012,26.5869438 C25.2205117,26.5847485 24.4747633,26.4982676 23.7458265,26.3291443 L23.7457671,26.3292628 Z M27.4023476,26.3408193 L25.5682848,24.5111936 L27.4023872,22.6815678 L29.2364501,24.5111936 L27.4023476,26.3408193 Z M29.3011864,26.1227071 L30.0765366,25.3492296 L30.4646771,25.7364227 C30.0807217,25.8838327 29.6929178,26.0125546 29.3012656,26.1225886 L29.3011864,26.1227071 Z M31.6330196,25.2258414 L30.9166034,24.5111936 L32.7506662,22.6816073 L33.9035623,23.8316697 C33.1903864,24.3636435 32.4304744,24.8302323 31.6330988,25.2257427 L31.6330196,25.2258414 Z M35.6268071,22.3473372 C35.3696442,22.6038724 35.1041442,22.8479423 34.8335747,23.0833597 L33.5907528,21.8435713 L35.4248552,20.0139653 L36.6420915,21.2282306 C36.3253808,21.611611 35.9887679,21.9862401 35.6268863,22.3472384 L35.6268071,22.3473372 Z M37.3683301,20.2766442 L36.2649418,19.1759292 L38.0990442,17.3463035 L38.7054147,17.9512137 C38.331964,18.7654859 37.8844063,19.5438591 37.3683697,20.2765454 L37.3683301,20.2766442 Z M39.1877585,16.7563476 L38.9391308,16.508307 L39.4128602,16.0357141 C39.3444603,16.2761294 39.2712285,16.5165052 39.1878377,16.7561896 L39.1877585,16.7563476 Z M39.8195958,13.9539387 L38.0991036,15.6701326 L36.2650012,13.8405464 L38.0991036,12.0109601 L39.8383493,13.7459804 C39.8324084,13.8152208 39.8269229,13.8843624 39.819675,13.9537806 L39.8195958,13.9539387 Z M39.8569642,12.0886556 L38.9391308,11.1730624 L39.6195252,10.4943287 C39.7426652,11.0182687 39.8221092,11.5514796 39.8570434,12.0884975 L39.8569642,12.0886556 Z M38.0990442,10.3350264 L36.2649616,8.5054401 L37.8305342,6.94359 C38.4142976,7.6221438 38.8817755,8.39216998 39.2141164,9.22261658 L38.0990442,10.3350264 Z"
                                fill="#000000" fill-rule="nonzero"></path>
                        </g>
                    </g>
                </g>
            </g>
        </g>
    </g>
</svg>