<?xml version="1.0" encoding="UTF-8"?>
<svg width="27px" height="48px" viewBox="0 0 27 52" version="1.1" xmlns="http://www.w3.org/2000/svg"
    xmlns:xlink="http://www.w3.org/1999/xlink">
    <defs>
        <filter x="-13.6%" y="-100.0%" width="127.3%" height="300.0%"
            filterUnits="objectBoundingBox" id="filter-1">
            <feGaussianBlur stdDeviation="1" in="SourceGraphic"></feGaussianBlur>
        </filter>
    </defs>
    <g id="Screens" stroke="none" stroke-width="1" fill="none" fill-rule="evenodd">
        <g id="6" transform="translate(-96.000000, -464.000000)">
            <g id="tennis-player-2" transform="translate(97.000000, 465.000000)">
                <rect id="Rectangle" fill-opacity="1" fill="#1C1C1C" filter="url(#filter-1)" x="2"
                    y="46" width="22" height="4" rx="1.5"></rect>
                <g id="Group-3">
                    <path
                        d="M1.88215541,3.44412708 C1.94229657,2.37808957 2.85998144,1.56238456 3.93187653,1.62219706 C5.00377161,1.68203706 5.82395869,2.59470707 5.76381753,3.66074458 C5.70364873,4.72675459 4.78596386,5.5424596 3.71406877,5.4826471 C2.64220134,5.4228346 1.82201426,4.51016459 1.88215541,3.44412708"
                        id="Fill-1" fill="#BED515"></path>
                    <path
                        d="M1.88215541,3.44412708 C1.94229657,2.37808957 2.85998144,1.56238456 3.93187653,1.62219706 C5.00377161,1.68203706 5.82395869,2.59470707 5.76381753,3.66074458 C5.70364873,4.72675459 4.78596386,5.5424596 3.71406877,5.4826471 C2.64220134,5.4228346 1.82201426,4.51016459 1.88215541,3.44412708 Z"
                        id="Stroke-2" stroke="#1C1C1C" stroke-width="1.10124" stroke-linecap="round"
                        stroke-linejoin="round"></path>
                    <path
                        d="M5.98165294,3.27777958 C6.47218354,2.32803957 7.64400972,1.95362706 8.59896828,2.44147707 C9.55389919,2.92932707 9.93039664,4.09472209 9.43986604,5.0444896 C8.94930778,5.99420211 7.77750925,6.36864211 6.82257834,5.8807646 C5.86761978,5.3929146 5.49112234,4.22751959 5.98165294,3.27777958"
                        id="Fill-3" fill="#BED515"></path>
                    <path
                        d="M5.98165294,3.27777958 C6.47218354,2.32803957 7.64400972,1.95362706 8.59896828,2.44147707 C9.55389919,2.92932707 9.93039664,4.09472209 9.43986604,5.0444896 C8.94930778,5.99420211 7.77750925,6.36864211 6.82257834,5.8807646 C5.86761978,5.3929146 5.49112234,4.22751959 5.98165294,3.27777958 Z"
                        id="Stroke-4" stroke="#000000" stroke-width="1.10124" stroke-linecap="round"
                        stroke-linejoin="round"></path>
                    <path
                        d="M7.76691888,2.79677707 C8.02307872,1.75991706 9.07592219,1.12590455 10.1185071,1.38066456 C11.1610367,1.63542456 11.7985329,2.68251457 11.5423731,3.71937458 C11.2862133,4.75623459 10.2333698,5.3902471 9.19081253,5.1354871 C8.14825527,4.88069959 7.51075904,3.83363708 7.76691888,2.79677707"
                        id="Fill-5" fill="#BED515"></path>
                    <path
                        d="M7.76691888,2.79677707 C8.02307872,1.75991706 9.07592219,1.12590455 10.1185071,1.38066456 C11.1610367,1.63542456 11.7985329,2.68251457 11.5423731,3.71937458 C11.2862133,4.75623459 10.2333698,5.3902471 9.19081253,5.1354871 C8.14825527,4.88069959 7.51075904,3.83363708 7.76691888,2.79677707 Z"
                        id="Stroke-6" stroke="#1C1C1C" stroke-width="1.10124" stroke-linecap="round"
                        stroke-linejoin="round"></path>
                    <path
                        d="M5.13262576,1.08402205 C5.7892842,0.239359546 7.01013579,0.0840120439 7.85943948,0.737109551 C8.70877082,1.39015206 8.86497191,2.60435957 8.20828582,3.44902208 C7.55165503,4.29371209 6.33077579,4.44903209 5.4814721,3.79596208 C4.63214076,3.14289208 4.47596732,1.92873956 5.13262576,1.08402205"
                        id="Fill-13" fill="#BED515"></path>
                    <path
                        d="M5.13262576,1.08402205 C5.7892842,0.239359546 7.01013579,0.0840120439 7.85943948,0.737109551 C8.70877082,1.39015206 8.86497191,2.60435957 8.20828582,3.44902208 C7.55165503,4.29371209 6.33077579,4.44903209 5.4814721,3.79596208 C4.63214076,3.14289208 4.47596732,1.92873956 5.13262576,1.08402205 Z"
                        id="Stroke-14" stroke="#1C1C1C" stroke-width="1.10124"
                        stroke-linecap="round" stroke-linejoin="round"></path>
                    <path
                        d="M10.1801414,4.29657209 C10.2382364,3.23042458 11.1543451,2.41298707 12.2263508,2.47076457 C13.2983289,2.52851457 14.1203962,3.43964458 14.0623289,4.50579209 C14.0039851,5.5719121 13.087904,6.38937711 12.0159812,6.33159961 C10.9439755,6.27382211 10.1220464,5.3627196 10.1801414,4.29657209"
                        id="Fill-7" fill="#BED515"></path>
                    <path
                        d="M10.1801414,4.29657209 C10.2382364,3.23042458 11.1543451,2.41298707 12.2263508,2.47076457 C13.2983289,2.52851457 14.1203962,3.43964458 14.0623289,4.50579209 C14.0039851,5.5719121 13.087904,6.38937711 12.0159812,6.33159961 C10.9439755,6.27382211 10.1220464,5.3627196 10.1801414,4.29657209 Z"
                        id="Stroke-8" stroke="#1C1C1C" stroke-width="1.10124" stroke-linecap="round"
                        stroke-linejoin="round"></path>
                    <path
                        d="M17.8223262,4.48896209 C17.4354872,5.4850121 16.3100872,5.98056211 15.3085642,5.5958921 C14.3070412,5.2112496 13.8087683,4.09199959 14.1956072,3.09600458 C14.5824462,2.09995456 15.7078462,1.60437706 16.7093692,1.98904706 C17.7108922,2.37371707 18.2091651,3.49296708 17.8223262,4.48896209"
                        id="Fill-9" fill="#BED515"></path>
                    <path
                        d="M17.8223262,4.48896209 C17.4354872,5.4850121 16.3100872,5.98056211 15.3085642,5.5958921 C14.3070412,5.2112496 13.8087683,4.09199959 14.1956072,3.09600458 C14.5824462,2.09995456 15.7078462,1.60437706 16.7093692,1.98904706 C17.7108922,2.37371707 18.2091651,3.49296708 17.8223262,4.48896209 Z"
                        id="Stroke-10" stroke="#1C1C1C" stroke-width="1.10124"
                        stroke-linecap="round" stroke-linejoin="round"></path>
                    <path
                        d="M11.6480833,3.67369708 C10.8451505,2.96493957 10.7719857,1.74303206 11.4846653,0.944514553 C12.1973448,0.145997045 13.426077,0.0732320438 14.2287886,0.782017051 C15.0317766,1.49077456 15.1050521,2.71268207 14.3922066,3.51119958 C13.6796376,4.30971709 12.4509884,4.38248209 11.6480833,3.67369708"
                        id="Fill-11" fill="#BED515"></path>
                    <path
                        d="M11.6480833,3.67369708 C10.8451505,2.96493957 10.7719857,1.74303206 11.4846653,0.944514553 C12.1973448,0.145997045 13.426077,0.0732320438 14.2287886,0.782017051 C15.0317766,1.49077456 15.1050521,2.71268207 14.3922066,3.51119958 C13.6796376,4.30971709 12.4509884,4.38248209 11.6480833,3.67369708 Z"
                        id="Stroke-12" stroke="#1C1C1C" stroke-width="1.10124"
                        stroke-linecap="round" stroke-linejoin="round"></path>
                    <path
                        d="M19.3282053,6.19671211 C18.3803255,6.69787211 17.2034944,6.33990461 16.6994148,5.3971221 C16.1956117,4.45433959 16.555629,3.28377458 17.5035089,2.78261457 C18.4513888,2.28145457 19.6284963,2.63944957 20.1322995,3.58223208 C20.6363791,4.52501459 20.2763617,5.6955521 19.3282053,6.19671211"
                        id="Fill-15" fill="#BED515"></path>
                    <path
                        d="M19.3282053,6.19671211 C18.3803255,6.69787211 17.2034944,6.33990461 16.6994148,5.3971221 C16.1956117,4.45433959 16.555629,3.28377458 17.5035089,2.78261457 C18.4513888,2.28145457 19.6284963,2.63944957 20.1322995,3.58223208 C20.6363791,4.52501459 20.2763617,5.6955521 19.3282053,6.19671211 Z"
                        id="Stroke-16" stroke="#000000" stroke-width="1.10124"
                        stroke-linecap="round" stroke-linejoin="round"></path>
                    <path
                        d="M22.4375721,5.6327421 C21.6204819,6.32516461 20.3936024,6.22759461 19.6973476,5.4148321 C19.0010928,4.60209709 19.0992542,3.38189458 19.9166209,2.68949957 C20.733711,1.99710456 21.9605905,2.09464706 22.6568454,2.90743707 C23.3531002,3.72017208 23.2549388,4.94034709 22.4375721,5.6327421"
                        id="Fill-17" fill="#BED515"></path>
                    <path
                        d="M22.4375721,5.6327421 C21.6204819,6.32516461 20.3936024,6.22759461 19.6973476,5.4148321 C19.0010928,4.60209709 19.0992542,3.38189458 19.9166209,2.68949957 C20.733711,1.99710456 21.9605905,2.09464706 22.6568454,2.90743707 C23.3531002,3.72017208 23.2549388,4.94034709 22.4375721,5.6327421 Z"
                        id="Stroke-18" stroke="#1C1C1C" stroke-width="1.10124"
                        stroke-linecap="round" stroke-linejoin="round"></path>
                    <path
                        d="M19.1764008,0.793429551 C20.1555264,0.355272047 21.3063654,0.789414551 21.7468475,1.76310706 C22.1873296,2.73677207 21.7507187,3.88126708 20.7718695,4.31939709 C19.7927439,4.75752709 18.6419049,4.32338459 18.2014228,3.34971958 C17.7609407,2.37602707 18.1975517,1.23153206 19.1764008,0.793429551"
                        id="Fill-19" fill="#BED515"></path>
                    <path
                        d="M19.1764008,0.793429551 C20.1555264,0.355272047 21.3063654,0.789414551 21.7468475,1.76310706 C22.1873296,2.73677207 21.7507187,3.88126708 20.7718695,4.31939709 C19.7927439,4.75752709 18.6419049,4.32338459 18.2014228,3.34971958 C17.7609407,2.37602707 18.1975517,1.23153206 19.1764008,0.793429551 Z"
                        id="Stroke-20" stroke="#1C1C1C" stroke-width="1.10124"
                        stroke-linecap="round" stroke-linejoin="round"></path>
                    <path
                        d="M18.2321155,0.0203220432 C19.2947475,0.173772045 20.0308199,1.15472456 19.8765268,2.21135707 C19.7222336,3.26796208 18.7359187,4.00012208 17.6735632,3.84667208 C16.6109313,3.69324958 15.8748588,2.71229707 16.029152,1.65566456 C16.1834452,0.599032049 17.1697601,-0.133127958 18.2321155,0.0203220432"
                        id="Fill-21" fill="#BED515"></path>
                    <path
                        d="M18.2321155,0.0203220432 C19.2947475,0.173772045 20.0308199,1.15472456 19.8765268,2.21135707 C19.7222336,3.26796208 18.7359187,4.00012208 17.6735632,3.84667208 C16.6109313,3.69324958 15.8748588,2.71229707 16.029152,1.65566456 C16.1834452,0.599032049 17.1697601,-0.133127958 18.2321155,0.0203220432 Z"
                        id="Stroke-22" stroke="#1C1C1C" stroke-width="1.10124"
                        stroke-linecap="round" stroke-linejoin="round"></path>
                    <path
                        d="M20.0675959,19.9237497 L20.0675959,40.71925 C20.0675959,41.07015 19.7816835,41.3545 19.4288554,41.3545 L5.57122759,41.3545 C5.21839949,41.3545 4.93248706,41.07015 4.93248706,40.71925 L4.93248706,19.9237497 L20.0675959,19.9237497"
                        id="Fill-24" fill="#E4022D"></path>
                    <path
                        d="M20.0675959,19.9237497 L20.0675959,40.71925 C20.0675959,41.07015 19.7816835,41.3545 19.4288554,41.3545 L5.57122759,41.3545 C5.21839949,41.3545 4.93248706,41.07015 4.93248706,40.71925 L4.93248706,19.9237497 L20.0675959,19.9237497 Z"
                        id="Stroke-25" stroke="#1C1C1C" stroke-width="1.10124"
                        stroke-linecap="round" stroke-linejoin="round"></path>
                    <path
                        d="M22.4406137,35.8272749 L24.2047542,35.8272749 C24.6441303,35.8272749 25,36.1814749 25,36.6181749 L25,43.2091 C25,43.6458 24.6441303,44 24.2047542,44 L22.4406137,44 C22.0012377,44 21.6450914,43.6458 21.6450914,43.2091 L21.6450914,36.6181749 C21.6450914,36.1814749 22.0012377,35.8272749 22.4406137,35.8272749"
                        id="Fill-28" fill="#1C1C1C"></path>
                    <path
                        d="M22.4406137,35.8272749 L24.2047542,35.8272749 C24.6441303,35.8272749 25,36.1814749 25,36.6181749 L25,43.2091 C25,43.6458 24.6441303,44 24.2047542,44 L22.4406137,44 C22.0012377,44 21.6450914,43.6458 21.6450914,43.2091 L21.6450914,36.6181749 C21.6450914,36.1814749 22.0012377,35.8272749 22.4406137,35.8272749 Z"
                        id="Stroke-29" stroke="#1C1C1C" stroke-width="1.10124"
                        stroke-linecap="round" stroke-linejoin="round"></path>
                    <path
                        d="M14.7256789,24.0696498 L10.2744593,24.0696498 C9.45460407,24.0696498 8.78998212,24.7307498 8.78998212,25.5461248 L8.78998212,36.5169749 C8.78998212,37.3323499 9.45460407,37.9934499 10.2744593,37.9934499 L14.7256789,37.9934499 C15.5455342,37.9934499 16.2099902,37.3323499 16.2099902,36.5169749 L16.2099902,25.5461248 C16.2099902,24.7307498 15.5455342,24.0696498 14.7256789,24.0696498"
                        id="Fill-30" fill="#E4022D"></path>
                    <path
                        d="M14.7256789,24.0696498 L10.2744593,24.0696498 C9.45460407,24.0696498 8.78998212,24.7307498 8.78998212,25.5461248 L8.78998212,36.5169749 C8.78998212,37.3323499 9.45460407,37.9934499 10.2744593,37.9934499 L14.7256789,37.9934499 C15.5455342,37.9934499 16.2099902,37.3323499 16.2099902,36.5169749 L16.2099902,25.5461248 C16.2099902,24.7307498 15.5455342,24.0696498 14.7256789,24.0696498 Z"
                        id="Stroke-31" stroke="#1C1C1C" stroke-width="1.10124"
                        stroke-linecap="round" stroke-linejoin="round"></path>
                    <path
                        d="M14.7422696,32.8457249 C14.7422696,34.0774499 13.7385345,35.0759749 12.5000415,35.0759749 C11.2616314,35.0759749 10.2577028,34.0774499 10.2577028,32.8457249 C10.2577028,31.6142749 11.2616314,30.6157499 12.5000415,30.6157499 C13.7385345,30.6157499 14.7422696,31.6142749 14.7422696,32.8457249"
                        id="Fill-32" fill="#D2D7D3"></path>
                    <path
                        d="M14.7422696,32.8457249 C14.7422696,34.0774499 13.7385345,35.0759749 12.5000415,35.0759749 C11.2616314,35.0759749 10.2577028,34.0774499 10.2577028,32.8457249 C10.2577028,31.6142749 11.2616314,30.6157499 12.5000415,30.6157499 C13.7385345,30.6157499 14.7422696,31.6142749 14.7422696,32.8457249 Z"
                        id="Path" stroke="#1C1C1C" stroke-width="1.10124" stroke-linecap="round"
                        stroke-linejoin="round"></path>
                    <path d="M21.6450914,39.9526565 L20.0675959,39.9526565 L21.6450914,39.9526565 Z"
                        id="Path" stroke="#1C1C1C" stroke-width="1.10124" stroke-linecap="round"
                        stroke-linejoin="round"></path>
                    <path
                        d="M2.55957984,35.8272749 L0.795328733,35.8272749 C0.356063279,35.8272749 0,36.1814749 0,36.6181749 L0,43.2091 C0,43.6458 0.356063279,44 0.795328733,44 L2.55957984,44 C2.99881764,44 3.35490857,43.6458 3.35490857,43.2091 L3.35490857,36.6181749 C3.35490857,36.1814749 2.99881764,35.8272749 2.55957984,35.8272749"
                        id="Fill-34" fill="#1C1C1C"></path>
                    <path
                        d="M2.55957984,35.8272749 L0.795328733,35.8272749 C0.356063279,35.8272749 0,36.1814749 0,36.6181749 L0,43.2091 C0,43.6458 0.356063279,44 0.795328733,44 L2.55957984,44 C2.99881764,44 3.35490857,43.6458 3.35490857,43.2091 L3.35490857,36.6181749 C3.35490857,36.1814749 2.99881764,35.8272749 2.55957984,35.8272749 Z"
                        id="Path" stroke="#1C1C1C" stroke-width="1.10124" stroke-linecap="round"
                        stroke-linejoin="round"></path>
                    <path d="M3.35490857,39.9526565 L4.93257002,39.9526565 L3.35490857,39.9526565 Z"
                        id="Path" stroke="#1C1C1C" stroke-width="1.10124" stroke-linecap="round"
                        stroke-linejoin="round"></path>
                    <path
                        d="M23.8845544,4.64584959 L23.1584364,19.3577997 C23.1429518,19.6745997 22.8797133,19.9237497 22.5606195,19.9237497 L2.43946344,19.9237497 C2.12036968,19.9237497 1.85713116,19.6745997 1.84164655,19.3577997 L1.11552853,4.64584959 C1.09893787,4.30594959 1.37157776,4.02104958 1.71334542,4.02104958 L23.2867375,4.02104958 C23.6285052,4.02104958 23.9011451,4.30594959 23.8845544,4.64584959"
                        id="Fill-26" fill="#D2D7D3"></path>
                    <path
                        d="M23.8845544,4.64584959 L23.1584364,19.3577997 C23.1429518,19.6745997 22.8797133,19.9237497 22.5606195,19.9237497 L2.43946344,19.9237497 C2.12036968,19.9237497 1.85713116,19.6745997 1.84164655,19.3577997 L1.11552853,4.64584959 C1.09893787,4.30594959 1.37157776,4.02104958 1.71334542,4.02104958 L23.2867375,4.02104958 C23.6285052,4.02104958 23.9011451,4.30594959 23.8845544,4.64584959 Z"
                        id="Stroke-27" stroke="#1C1C1C" stroke-width="1.10124"
                        stroke-linecap="round" stroke-linejoin="round"></path>
                </g>
            </g>
        </g>
    </g>
</svg>